<svg xmlns="http://www.w3.org/2000/svg" version="1.1" xmlns:xlink="http://www.w3.org/1999/xlink" xmlns:svgjs="http://svgjs.dev/svgjs" width="1000" height="1000" viewBox="0 0 1000 1000"><rect width="1000" height="1000" fill="#1b4571"></rect><g transform="matrix(0.7,0,0,0.7,149.57575757575756,282.1265587044535)"><svg viewBox="0 0 396 247" data-background-color="#1b4571" preserveAspectRatio="xMidYMid meet" height="623" width="1000" xmlns="http://www.w3.org/2000/svg" xmlns:xlink="http://www.w3.org/1999/xlink"><g id="tight-bounds" transform="matrix(1,0,0,1,0.2400000000000091,-0.09999999999999432)"><svg viewBox="0 0 395.52 247.2" height="247.2" width="395.52"><g><svg></svg></g><g><svg viewBox="0 0 395.52 247.2" height="247.2" width="395.52"><g transform="matrix(1,0,0,1,75.54432,71.44700549162621)"><svg viewBox="0 0 244.43135999999998 104.30598901674756" height="104.30598901674756" width="244.43135999999998"><g><svg viewBox="0 0 244.43135999999998 104.30598901674756" height="104.30598901674756" width="244.43135999999998"><g><svg viewBox="0 0 244.43135999999998 104.30598901674756" height="104.30598901674756" width="244.43135999999998"><g><svg viewBox="0 0 244.43135999999998 104.30598901674756" height="104.30598901674756" width="244.43135999999998"><g><svg viewBox="0 0 244.43135999999998 104.30598901674756" height="104.30598901674756" width="244.43135999999998" id="textblock"><g><svg viewBox="0 0 244.43135999999998 71.84931216931216" height="71.84931216931216" width="244.43135999999998"><g transform="matrix(1,0,0,1,0,0)"><svg width="244.43135999999998" viewBox="0.4000000059604645 -25 85.04999542236328 25" height="71.84931216931216" data-palette-color="#ffffff"><path d="M21.45-17.05L21.45-17.05Q21.45-20.7 20.15-25L20.15-25 33.5-25Q33.55-24.25 33.55-22.8L33.55-22.8Q33.55-16.4 31.85-12.25L31.85-12.25Q27.25-10.25 24.48-8.22 21.7-6.2 21.7-4.05 21.7-1.9 23.55 0L23.55 0 11 0Q2.55-10.75 0.4-25L0.4-25 14.05-25Q14.25-15.85 18.75-7.15L18.75-7.15Q21.45-11.65 21.45-17.05ZM68-22.7L68-22.7Q68-24.05 67.6-25L67.6-25 81.85-25Q83.65-20.2 84.52-13.25 85.4-6.3 85.45 0L85.45 0 73.9 0Q73.55-9 70.95-17.35L70.95-17.35Q66.6-8.85 66.25 0L66.25 0 56.45 0Q55.15-9.8 51.45-17.4L51.45-17.4Q48.75-11.05 48.75-5.6L48.75-5.6Q48.75-2.65 49.45 0L49.45 0 37.3 0Q36.95-2.05 36.95-5.43 36.95-8.8 37.95-12.2L37.95-12.2Q41.5-13.25 44.77-15.65 48.05-18.05 49.6-20.9L49.6-20.9Q48.3-23.05 46.85-25L46.85-25 62.65-25Q64.55-19.85 65.5-13.8L65.5-13.8Q68-18.45 68-22.7Z" opacity="1" transform="matrix(1,0,0,1,0,0)" fill="#ffffff" class="undefined-text-0" data-fill-palette-color="primary" id="text-0"></path></svg></g></svg></g><g transform="matrix(1,0,0,1,0,88.8112103889947)"><svg viewBox="0 0 244.43135999999998 15.494778627752861" height="15.494778627752861" width="244.43135999999998"><g transform="matrix(1,0,0,1,0,0)"><svg width="244.43135999999998" viewBox="1.2000000476837158 -36.29999923706055 746.8699951171875 47.349998474121094" height="15.494778627752861" data-palette-color="#ffffff"><path d="M10.6-25.5L10.6-25.5Q12.05-25.5 13.45-25.2 14.85-24.9 15.95-24.5L15.95-24.5Q17.25-24.05 18.35-23.55L18.35-23.55 16.65-19.65Q15.65-20.1 14.65-20.45L14.65-20.45Q13.8-20.75 12.78-21.03 11.75-21.3 10.75-21.3L10.75-21.3Q9.6-21.3 8.78-20.75 7.95-20.2 7.95-19.1L7.95-19.1Q7.95-16.25 12.1-14.65L12.1-14.65Q13.65-14.05 14.9-13.38 16.15-12.7 17.03-11.8 17.9-10.9 18.35-9.73 18.8-8.55 18.8-6.95L18.8-6.95Q18.8-5.55 18.23-4.2 17.65-2.85 16.53-1.8 15.4-0.75 13.78-0.13 12.15 0.5 10.1 0.5L10.1 0.5Q8.45 0.5 6.85 0.13 5.25-0.25 3.98-0.7 2.7-1.15 1.95-1.55L1.95-1.55 1.2-1.9 3.05-6.1 3.7-5.75Q4.35-5.35 5.35-4.9 6.35-4.45 7.5-4.08 8.65-3.7 9.6-3.7L9.6-3.7Q11.35-3.7 12.2-4.4 13.05-5.1 13.05-6.25L13.05-6.25Q13.05-7.55 12.13-8.63 11.2-9.7 9.35-10.4L9.35-10.4Q5.5-11.85 3.83-13.7 2.15-15.55 2.15-18.5L2.15-18.5Q2.15-19.9 2.8-21.18 3.45-22.45 4.58-23.43 5.7-24.4 7.25-24.95 8.8-25.5 10.6-25.5ZM33.75-25.5Q39.5-25.5 42.1-22.1 44.7-18.7 44.7-12.75L44.7-12.75Q44.7-9.95 44-7.53 43.3-5.1 41.87-3.33 40.45-1.55 38.3-0.53 36.15 0.5 33.3 0.5L33.3 0.5Q30.45 0.5 28.37-0.38 26.3-1.25 24.95-2.9 23.6-4.55 22.97-6.9 22.35-9.25 22.35-12.2L22.35-12.2Q22.35-15.05 23.05-17.48 23.75-19.9 25.17-21.68 26.6-23.45 28.75-24.48 30.9-25.5 33.75-25.5L33.75-25.5ZM33.25-21.3Q31.8-21.3 30.87-20.65 29.95-20 29.42-18.82 28.9-17.65 28.7-16.07 28.5-14.5 28.5-12.7L28.5-12.7Q28.5-10.85 28.72-9.2 28.95-7.55 29.55-6.33 30.15-5.1 31.17-4.4 32.2-3.7 33.8-3.7L33.8-3.7Q35.25-3.7 36.17-4.35 37.1-5 37.62-6.18 38.15-7.35 38.35-8.9 38.55-10.45 38.55-12.25L38.55-12.25Q38.55-14.1 38.32-15.75 38.1-17.4 37.5-18.65 36.9-19.9 35.87-20.6 34.85-21.3 33.25-21.3L33.25-21.3ZM55 0.2Q52.15 0.2 50.8-1.38 49.45-2.95 49.45-5.4L49.45-5.4 49.45-35.25 55.15-36.3 55.15-5.95Q55.15-4.8 55.6-4.35 56.05-3.9 56.9-3.9L56.9-3.9Q57.4-3.9 57.87-3.95 58.35-4 58.75-4.1L58.75-4.1Q59.2-4.2 59.55-4.3L59.55-4.3 60.25-0.7Q59.6-0.45 58.8-0.25L58.8-0.25Q58.1-0.05 57.15 0.08 56.2 0.2 55 0.2L55 0.2ZM78.64-24.9L84.44-24.9 84.54-24.5Q84.59-24.05 84.69-23.33 84.79-22.6 84.87-21.68 84.94-20.75 84.94-19.8L84.94-19.8Q84.94-14.25 84.12-10.43 83.29-6.6 81.62-4.23 79.94-1.85 77.37-0.8 74.79 0.25 71.29 0.25L71.29 0.25Q67.34 0.25 65.67-2.02 63.99-4.3 63.99-8.3L63.99-8.3 63.99-24.9 69.69-24.9 69.69-8.45Q69.69-6.35 70.44-5.05 71.19-3.75 72.99-3.75L72.99-3.75Q74.79-3.75 75.99-5.1 77.19-6.45 77.89-8.63 78.59-10.8 78.89-13.58 79.19-16.35 79.19-19.2L79.19-19.2Q79.19-20.25 79.12-21.28 79.04-22.3 78.92-23.1 78.79-23.9 78.74-24.4L78.74-24.4 78.64-24.9ZM95.69 0.2Q93.04 0.2 91.64-1.38 90.24-2.95 90.24-5.45L90.24-5.45 90.24-24.9 95.94-24.9 95.94-5.95Q95.94-4.8 96.29-4.4 96.64-4 97.34-4L97.34-4Q97.54-4 97.77-4 97.99-4 98.19-4.05L98.19-4.05Q98.39-4.05 98.64-4.1L98.64-4.1 99.24-0.5Q98.89-0.3 98.34-0.15L98.34-0.15Q97.89 0 97.22 0.1 96.54 0.2 95.69 0.2L95.69 0.2ZM93.19-36Q94.79-36 95.64-35.05 96.49-34.1 96.49-32.6L96.49-32.6Q96.49-31.1 95.62-30.1 94.74-29.1 93.04-29.1L93.04-29.1Q91.44-29.1 90.57-30.08 89.69-31.05 89.69-32.45L89.69-32.45Q89.69-34 90.57-35 91.44-36 93.19-36L93.19-36ZM124.39 0L118.74 0 118.74-16.15Q118.74-18.25 117.99-19.53 117.24-20.8 115.44-20.8L115.44-20.8Q114.29-20.8 113.21-20.23 112.14-19.65 111.29-18.55 110.44-17.45 109.91-15.88 109.39-14.3 109.39-12.35L109.39-12.35 109.39 0 103.69 0 103.69-12.6Q103.69-15.6 103.29-17.63 102.89-19.65 102.44-20.9L102.44-20.9Q101.89-22.35 101.24-23.25L101.24-23.25 105.74-25.05Q106.24-24.5 106.74-23.7L106.74-23.7Q107.14-23 107.54-21.98 107.94-20.95 108.19-19.65L108.19-19.65Q109.49-22.65 111.94-23.98 114.39-25.3 117.09-25.3L117.09-25.3Q120.94-25.3 122.66-22.98 124.39-20.65 124.39-16.7L124.39-16.7 124.39 0ZM133.04 8.75L134.44 4.4Q135.19 4.7 136.04 5.03 136.89 5.35 137.84 5.65 138.79 5.95 139.76 6.15 140.74 6.35 141.69 6.35L141.69 6.35Q144.49 6.35 145.74 4.67 146.99 3 146.99 0.35L146.99 0.35Q146.99-2.25 145.89-4.9L145.89-4.9Q145.04-2.35 143.21-1.03 141.39 0.3 138.39 0.3L138.39 0.3Q136.04 0.3 134.31-0.58 132.59-1.45 131.44-3.08 130.29-4.7 129.74-7 129.19-9.3 129.19-12.1L129.19-12.1Q129.19-14.95 130.06-17.38 130.94-19.8 132.51-21.55 134.09-23.3 136.29-24.3 138.49-25.3 141.14-25.3L141.14-25.3Q142.34-25.3 143.71-25.15 145.09-25 146.41-24.78 147.74-24.55 148.91-24.3 150.09-24.05 150.94-23.85L150.94-23.85 150.69-10.1Q150.64-8.6 150.86-7.35 151.09-6.1 151.39-4.88 151.69-3.65 151.94-2.4 152.19-1.15 152.19 0.35L152.19 0.35Q152.19 5.65 149.49 8.25 146.79 10.85 142.19 10.85L142.19 10.85Q140.69 10.85 139.19 10.58 137.69 10.3 136.41 9.95 135.14 9.6 134.24 9.25 133.34 8.9 133.04 8.75L133.04 8.75ZM139.34-3.7Q140.54-3.7 141.56-4.5 142.59-5.3 143.39-6.63 144.19-7.95 144.64-9.65 145.09-11.35 145.09-13.15L145.09-13.15 145.09-20.75Q144.59-20.9 143.59-21.1 142.59-21.3 141.79-21.3L141.79-21.3Q139.89-21.3 138.66-20.65 137.44-20 136.69-18.85 135.94-17.7 135.64-16.1 135.34-14.5 135.34-12.6L135.34-12.6Q135.34-10.85 135.44-9.25 135.54-7.65 135.96-6.4 136.39-5.15 137.19-4.42 137.99-3.7 139.34-3.7L139.34-3.7ZM167.23-20.85L167.23-24.9 171.73-24.9 172.73-30.75 177.43-31.8 177.43-24.9 183.58-24.9 182.88-20.85 177.43-20.85 177.43-6.05Q177.43-4.75 178.13-4.38 178.83-4 179.68-4L179.68-4Q180.38-4 181.08-4.1 181.78-4.2 182.33-4.35L182.33-4.35Q182.98-4.5 183.58-4.7L183.58-4.7 184.53-0.95 184.08-0.8Q183.63-0.6 182.76-0.38 181.88-0.15 180.71 0.03 179.53 0.2 178.13 0.2L178.13 0.2Q176.73 0.2 175.56-0.1 174.38-0.4 173.53-1.07 172.68-1.75 172.21-2.8 171.73-3.85 171.73-5.4L171.73-5.4 171.73-20.85 167.23-20.85ZM197.18-25.5Q202.93-25.5 205.53-22.1 208.13-18.7 208.13-12.75L208.13-12.75Q208.13-9.95 207.43-7.53 206.73-5.1 205.3-3.33 203.88-1.55 201.73-0.53 199.58 0.5 196.73 0.5L196.73 0.5Q193.88 0.5 191.8-0.38 189.73-1.25 188.38-2.9 187.03-4.55 186.4-6.9 185.78-9.25 185.78-12.2L185.78-12.2Q185.78-15.05 186.48-17.48 187.18-19.9 188.6-21.68 190.03-23.45 192.18-24.48 194.33-25.5 197.18-25.5L197.18-25.5ZM196.68-21.3Q195.23-21.3 194.3-20.65 193.38-20 192.85-18.82 192.33-17.65 192.13-16.07 191.93-14.5 191.93-12.7L191.93-12.7Q191.93-10.85 192.15-9.2 192.38-7.55 192.98-6.33 193.58-5.1 194.6-4.4 195.63-3.7 197.23-3.7L197.23-3.7Q198.68-3.7 199.6-4.35 200.53-5 201.05-6.18 201.58-7.35 201.78-8.9 201.98-10.45 201.98-12.25L201.98-12.25Q201.98-14.1 201.75-15.75 201.53-17.4 200.93-18.65 200.33-19.9 199.3-20.6 198.28-21.3 196.68-21.3L196.68-21.3ZM247.33 0L241.68 0 241.68-16.3Q241.68-18.4 241.03-19.63 240.38-20.85 238.78-20.85L238.78-20.85Q237.83-20.85 236.85-20.33 235.88-19.8 235.08-18.8 234.28-17.8 233.78-16.4 233.28-15 233.28-13.3L233.28-13.3 233.28 0 227.63 0 227.63-16.3Q227.63-18.4 226.98-19.63 226.33-20.85 224.73-20.85L224.73-20.85Q223.73-20.85 222.75-20.28 221.78-19.7 221-18.6 220.23-17.5 219.75-15.93 219.28-14.35 219.28-12.4L219.28-12.4 219.28 0 213.58 0 213.58-12.6Q213.58-15.6 213.18-17.63 212.78-19.65 212.33-20.9L212.33-20.9Q211.78-22.35 211.13-23.25L211.13-23.25 215.63-25.05Q216.13-24.5 216.63-23.7L216.63-23.7Q217.03-23 217.43-21.98 217.83-20.95 218.08-19.65L218.08-19.65Q219.33-22.65 221.6-23.98 223.88-25.3 226.43-25.3L226.43-25.3Q228.98-25.3 230.4-24 231.83-22.7 232.53-20.65L232.53-20.65Q233.88-23.15 236-24.23 238.13-25.3 240.48-25.3L240.48-25.3Q242.43-25.3 243.75-24.68 245.08-24.05 245.85-22.93 246.63-21.8 246.98-20.23 247.33-18.65 247.33-16.7L247.33-16.7 247.33 0ZM263.47-25.5Q269.22-25.5 271.82-22.1 274.42-18.7 274.42-12.75L274.42-12.75Q274.42-9.95 273.72-7.53 273.02-5.1 271.6-3.33 270.17-1.55 268.02-0.53 265.87 0.5 263.02 0.5L263.02 0.5Q260.17 0.5 258.1-0.38 256.02-1.25 254.67-2.9 253.32-4.55 252.7-6.9 252.07-9.25 252.07-12.2L252.07-12.2Q252.07-15.05 252.77-17.48 253.47-19.9 254.9-21.68 256.32-23.45 258.47-24.48 260.62-25.5 263.47-25.5L263.47-25.5ZM262.97-21.3Q261.52-21.3 260.6-20.65 259.67-20 259.15-18.82 258.62-17.65 258.42-16.07 258.22-14.5 258.22-12.7L258.22-12.7Q258.22-10.85 258.45-9.2 258.67-7.55 259.27-6.33 259.87-5.1 260.9-4.4 261.92-3.7 263.52-3.7L263.52-3.7Q264.97-3.7 265.9-4.35 266.82-5 267.35-6.18 267.87-7.35 268.07-8.9 268.27-10.45 268.27-12.25L268.27-12.25Q268.27-14.1 268.05-15.75 267.82-17.4 267.22-18.65 266.62-19.9 265.6-20.6 264.57-21.3 262.97-21.3L262.97-21.3ZM290.57-19.7Q289.67-19.7 288.77-19.25 287.87-18.8 287.17-18.03 286.47-17.25 286.02-16.15 285.57-15.05 285.57-13.7L285.57-13.7 285.57 0 279.87 0 279.87-12.6Q279.87-15.6 279.47-17.63 279.07-19.65 278.62-20.9L278.62-20.9Q278.07-22.35 277.42-23.25L277.42-23.25 281.92-25.05Q282.37-24.5 282.87-23.7L282.87-23.7Q283.27-23 283.67-22.05 284.07-21.1 284.32-19.8L284.32-19.8Q285.32-22.7 287.22-23.98 289.12-25.25 291.52-25.25L291.52-25.25Q292.67-25.25 293.67-24.98 294.67-24.7 294.62-24.7L294.62-24.7 293.02-19.15Q293.07-19.15 292.45-19.43 291.82-19.7 290.57-19.7L290.57-19.7ZM309.02-19.7Q308.12-19.7 307.22-19.25 306.32-18.8 305.62-18.03 304.92-17.25 304.47-16.15 304.02-15.05 304.02-13.7L304.02-13.7 304.02 0 298.32 0 298.32-12.6Q298.32-15.6 297.92-17.63 297.52-19.65 297.07-20.9L297.07-20.9Q296.52-22.35 295.87-23.25L295.87-23.25 300.37-25.05Q300.82-24.5 301.32-23.7L301.32-23.7Q301.72-23 302.12-22.05 302.52-21.1 302.77-19.8L302.77-19.8Q303.77-22.7 305.67-23.98 307.57-25.25 309.97-25.25L309.97-25.25Q311.12-25.25 312.12-24.98 313.12-24.7 313.07-24.7L313.07-24.7 311.47-19.15Q311.52-19.15 310.89-19.43 310.27-19.7 309.02-19.7L309.02-19.7ZM324.72-25.5Q330.47-25.5 333.07-22.1 335.67-18.7 335.67-12.75L335.67-12.75Q335.67-9.95 334.97-7.53 334.27-5.1 332.84-3.33 331.42-1.55 329.27-0.53 327.12 0.5 324.27 0.5L324.27 0.5Q321.42 0.5 319.34-0.38 317.27-1.25 315.92-2.9 314.57-4.55 313.94-6.9 313.32-9.25 313.32-12.2L313.32-12.2Q313.32-15.05 314.02-17.48 314.72-19.9 316.14-21.68 317.57-23.45 319.72-24.48 321.87-25.5 324.72-25.5L324.72-25.5ZM324.22-21.3Q322.77-21.3 321.84-20.65 320.92-20 320.39-18.82 319.87-17.65 319.67-16.07 319.47-14.5 319.47-12.7L319.47-12.7Q319.47-10.85 319.69-9.2 319.92-7.55 320.52-6.33 321.12-5.1 322.14-4.4 323.17-3.7 324.77-3.7L324.77-3.7Q326.22-3.7 327.14-4.35 328.07-5 328.59-6.18 329.12-7.35 329.32-8.9 329.52-10.45 329.52-12.25L329.52-12.25Q329.52-14.1 329.29-15.75 329.07-17.4 328.47-18.65 327.87-19.9 326.84-20.6 325.82-21.3 324.22-21.3L324.22-21.3ZM367.41-24.9L373.21-24.9 373.31-24.5Q373.36-24.05 373.46-23.35 373.56-22.65 373.64-21.7 373.71-20.75 373.71-19.8L373.71-19.8Q373.71-14.25 373.09-10.4 372.46-6.55 371.04-4.17 369.61-1.8 367.26-0.73 364.91 0.35 361.46 0.35L361.46 0.35Q356.61 0.35 354.81-3.65L354.81-3.65Q353.91-1.6 352.34-0.63 350.76 0.35 347.71 0.35L347.71 0.35Q343.81 0.35 342.11-1.9 340.41-4.15 340.41-8.15L340.41-8.15 340.41-24.9 346.11-24.9 346.11-8.6Q346.11-6.5 346.86-5.13 347.61-3.75 349.41-3.75L349.41-3.75Q351.71-3.75 352.96-6 354.21-8.25 354.21-13.45L354.21-13.45 354.21-24.9 359.86-24.9Q359.81-21.15 359.81-17.95L359.81-17.95Q359.81-16.55 359.79-15.15 359.76-13.75 359.76-12.5 359.76-11.25 359.76-10.23 359.76-9.2 359.76-8.6L359.76-8.6Q359.76-6.5 360.56-5.13 361.36-3.75 363.16-3.75L363.16-3.75Q364.91-3.75 365.89-5.1 366.86-6.45 367.31-8.63 367.76-10.8 367.86-13.58 367.96-16.35 367.96-19.2L367.96-19.2Q367.96-20.35 367.89-21.38 367.81-22.4 367.69-23.2 367.56-24 367.51-24.45L367.51-24.45 367.41-24.9ZM378.46-33.85L383.26-33.85 382.86-21.7 378.86-21.7 378.46-33.85ZM395.81-25.5L395.81-25.5Q397.26-25.5 398.66-25.2 400.06-24.9 401.16-24.5L401.16-24.5Q402.46-24.05 403.56-23.55L403.56-23.55 401.86-19.65Q400.86-20.1 399.86-20.45L399.86-20.45Q399.01-20.75 397.98-21.03 396.96-21.3 395.96-21.3L395.96-21.3Q394.81-21.3 393.98-20.75 393.16-20.2 393.16-19.1L393.16-19.1Q393.16-16.25 397.31-14.65L397.31-14.65Q398.86-14.05 400.11-13.38 401.36-12.7 402.23-11.8 403.11-10.9 403.56-9.73 404.01-8.55 404.01-6.95L404.01-6.95Q404.01-5.55 403.43-4.2 402.86-2.85 401.73-1.8 400.61-0.75 398.98-0.13 397.36 0.5 395.31 0.5L395.31 0.5Q393.66 0.5 392.06 0.13 390.46-0.25 389.18-0.7 387.91-1.15 387.16-1.55L387.16-1.55 386.41-1.9 388.26-6.1 388.91-5.75Q389.56-5.35 390.56-4.9 391.56-4.45 392.71-4.08 393.86-3.7 394.81-3.7L394.81-3.7Q396.56-3.7 397.41-4.4 398.26-5.1 398.26-6.25L398.26-6.25Q398.26-7.55 397.33-8.63 396.41-9.7 394.56-10.4L394.56-10.4Q390.71-11.85 389.03-13.7 387.36-15.55 387.36-18.5L387.36-18.5Q387.36-19.9 388.01-21.18 388.66-22.45 389.78-23.43 390.91-24.4 392.46-24.95 394.01-25.5 395.81-25.5ZM427.95 10.05L422.25 11.05 422.25-12.6Q422.25-15.6 421.85-17.63 421.45-19.65 421-20.9L421-20.9Q420.45-22.35 419.8-23.25L419.8-23.25 424.3-25.05Q424.9-24.45 425.4-23.55L425.4-23.55Q425.8-22.8 426.2-21.73 426.6-20.65 426.8-19.2L426.8-19.2Q427.65-22.2 429.5-23.75 431.35-25.3 434.65-25.3L434.65-25.3Q437-25.3 438.73-24.43 440.45-23.55 441.58-21.93 442.7-20.3 443.25-18 443.8-15.7 443.8-12.9L443.8-12.9Q443.8-10.05 442.95-7.63 442.1-5.2 440.53-3.45 438.95-1.7 436.75-0.7 434.55 0.3 431.85 0.3L431.85 0.3Q430.9 0.3 429.93 0.2 428.95 0.1 427.95 0L427.95 0 427.95 10.05ZM433.7-21.3Q432.45-21.3 431.4-20.45 430.35-19.6 429.58-18.2 428.8-16.8 428.38-15.05 427.95-13.3 427.95-11.45L427.95-11.45 427.95-4.25Q428.45-4.1 429.45-3.9 430.45-3.7 431.2-3.7L431.2-3.7Q433.1-3.7 434.35-4.35 435.6-5 436.35-6.15 437.1-7.3 437.4-8.9 437.7-10.5 437.7-12.4L437.7-12.4Q437.7-14.15 437.6-15.75 437.5-17.35 437.08-18.6 436.65-19.85 435.85-20.58 435.05-21.3 433.7-21.3L433.7-21.3ZM460-19.7Q459.1-19.7 458.2-19.25 457.3-18.8 456.6-18.03 455.9-17.25 455.45-16.15 455-15.05 455-13.7L455-13.7 455 0 449.3 0 449.3-12.6Q449.3-15.6 448.9-17.63 448.5-19.65 448.05-20.9L448.05-20.9Q447.5-22.35 446.85-23.25L446.85-23.25 451.35-25.05Q451.8-24.5 452.3-23.7L452.3-23.7Q452.7-23 453.1-22.05 453.5-21.1 453.75-19.8L453.75-19.8Q454.75-22.7 456.65-23.98 458.55-25.25 460.95-25.25L460.95-25.25Q462.1-25.25 463.1-24.98 464.1-24.7 464.05-24.7L464.05-24.7 462.45-19.15Q462.5-19.15 461.88-19.43 461.25-19.7 460-19.7L460-19.7ZM475.7-25.5Q481.45-25.5 484.05-22.1 486.65-18.7 486.65-12.75L486.65-12.75Q486.65-9.95 485.95-7.53 485.25-5.1 483.82-3.33 482.4-1.55 480.25-0.53 478.1 0.5 475.25 0.5L475.25 0.5Q472.4 0.5 470.32-0.38 468.25-1.25 466.9-2.9 465.55-4.55 464.92-6.9 464.3-9.25 464.3-12.2L464.3-12.2Q464.3-15.05 465-17.48 465.7-19.9 467.12-21.68 468.55-23.45 470.7-24.48 472.85-25.5 475.7-25.5L475.7-25.5ZM475.2-21.3Q473.75-21.3 472.82-20.65 471.9-20 471.37-18.82 470.85-17.65 470.65-16.07 470.45-14.5 470.45-12.7L470.45-12.7Q470.45-10.85 470.67-9.2 470.9-7.55 471.5-6.33 472.1-5.1 473.12-4.4 474.15-3.7 475.75-3.7L475.75-3.7Q477.2-3.7 478.12-4.35 479.05-5 479.57-6.18 480.1-7.35 480.3-8.9 480.5-10.45 480.5-12.25L480.5-12.25Q480.5-14.1 480.27-15.75 480.05-17.4 479.45-18.65 478.85-19.9 477.82-20.6 476.8-21.3 475.2-21.3L475.2-21.3ZM491.65-1.15L491.65-35.25 497.35-36.25 497.35-21Q498.25-23.05 499.87-24.18 501.5-25.3 504.05-25.3L504.05-25.3Q506.4-25.3 508.12-24.43 509.85-23.55 511-21.93 512.15-20.3 512.7-18 513.25-15.7 513.25-12.9L513.25-12.9Q513.25-10.05 512.37-7.63 511.5-5.2 509.92-3.45 508.35-1.7 506.15-0.7 503.95 0.3 501.3 0.3L501.3 0.3Q499.8 0.3 498.1 0.08 496.4-0.15 494.95-0.4L494.95-0.4Q493.3-0.7 491.65-1.15L491.65-1.15ZM503.1-21.3Q501.85-21.3 500.8-20.45 499.75-19.6 498.97-18.2 498.2-16.8 497.77-15.05 497.35-13.3 497.35-11.45L497.35-11.45 497.35-4.2Q497.8-4.1 498.8-3.9 499.8-3.7 500.65-3.7L500.65-3.7Q502.5-3.7 503.75-4.35 505-5 505.75-6.15 506.5-7.3 506.8-8.9 507.1-10.5 507.1-12.4L507.1-12.4Q507.1-14.15 507-15.75 506.9-17.35 506.47-18.6 506.05-19.85 505.25-20.58 504.45-21.3 503.1-21.3L503.1-21.3ZM523.54 0.2Q520.69 0.2 519.34-1.38 517.99-2.95 517.99-5.4L517.99-5.4 517.99-35.25 523.69-36.3 523.69-5.95Q523.69-4.8 524.14-4.35 524.59-3.9 525.44-3.9L525.44-3.9Q525.94-3.9 526.42-3.95 526.89-4 527.29-4.1L527.29-4.1Q527.74-4.2 528.09-4.3L528.09-4.3 528.79-0.7Q528.14-0.45 527.34-0.25L527.34-0.25Q526.64-0.05 525.69 0.08 524.74 0.2 523.54 0.2L523.54 0.2ZM530.54-11.85Q530.54-15.2 531.46-17.75 532.39-20.3 534.01-22.03 535.64-23.75 537.84-24.63 540.04-25.5 542.59-25.5L542.59-25.5Q544.84-25.5 546.41-24.95 547.99-24.4 548.99-23.45 549.99-22.5 550.46-21.2 550.94-19.9 550.94-18.4L550.94-18.4Q550.94-16.6 549.94-14.98 548.94-13.35 547.06-12.13 545.19-10.9 542.54-10.18 539.89-9.45 536.59-9.4L536.59-9.4Q536.74-8.25 537.06-7.23 537.39-6.2 538.01-5.43 538.64-4.65 539.64-4.2 540.64-3.75 542.14-3.75L542.14-3.75Q543.24-3.75 544.49-4 545.74-4.25 546.79-4.6L546.79-4.6Q548.04-5 549.24-5.5L549.24-5.5 550.74-1.95Q549.44-1.3 547.94-0.8L547.94-0.8Q546.64-0.35 544.94 0 543.24 0.35 541.34 0.35L541.34 0.35Q538.44 0.35 536.39-0.53 534.34-1.4 533.04-3 531.74-4.6 531.14-6.85 530.54-9.1 530.54-11.85L530.54-11.85ZM542.14-21.6Q540.49-21.6 539.41-20.83 538.34-20.05 537.69-18.82 537.04-17.6 536.76-16.07 536.49-14.55 536.44-13L536.44-13Q538.84-13.1 540.51-13.63 542.19-14.15 543.24-14.93 544.29-15.7 544.76-16.6 545.24-17.5 545.24-18.4L545.24-18.4Q545.24-19.85 544.39-20.73 543.54-21.6 542.14-21.6L542.14-21.6ZM589.89 0L584.24 0 584.24-16.3Q584.24-18.4 583.59-19.63 582.94-20.85 581.34-20.85L581.34-20.85Q580.39-20.85 579.41-20.33 578.44-19.8 577.64-18.8 576.84-17.8 576.34-16.4 575.84-15 575.84-13.3L575.84-13.3 575.84 0 570.19 0 570.19-16.3Q570.19-18.4 569.54-19.63 568.89-20.85 567.29-20.85L567.29-20.85Q566.29-20.85 565.31-20.28 564.34-19.7 563.56-18.6 562.79-17.5 562.31-15.93 561.84-14.35 561.84-12.4L561.84-12.4 561.84 0 556.14 0 556.14-12.6Q556.14-15.6 555.74-17.63 555.34-19.65 554.89-20.9L554.89-20.9Q554.34-22.35 553.69-23.25L553.69-23.25 558.19-25.05Q558.69-24.5 559.19-23.7L559.19-23.7Q559.59-23 559.99-21.98 560.39-20.95 560.64-19.65L560.64-19.65Q561.89-22.65 564.16-23.98 566.44-25.3 568.99-25.3L568.99-25.3Q571.54-25.3 572.96-24 574.39-22.7 575.09-20.65L575.09-20.65Q576.44-23.15 578.56-24.23 580.69-25.3 583.04-25.3L583.04-25.3Q584.99-25.3 586.31-24.68 587.64-24.05 588.41-22.93 589.19-21.8 589.54-20.23 589.89-18.65 589.89-16.7L589.89-16.7 589.89 0ZM603.48-25.5L603.48-25.5Q604.93-25.5 606.33-25.2 607.73-24.9 608.83-24.5L608.83-24.5Q610.13-24.05 611.23-23.55L611.23-23.55 609.53-19.65Q608.53-20.1 607.53-20.45L607.53-20.45Q606.68-20.75 605.66-21.03 604.63-21.3 603.63-21.3L603.63-21.3Q602.48-21.3 601.66-20.75 600.83-20.2 600.83-19.1L600.83-19.1Q600.83-16.25 604.98-14.65L604.98-14.65Q606.53-14.05 607.78-13.38 609.03-12.7 609.91-11.8 610.78-10.9 611.23-9.73 611.68-8.55 611.68-6.95L611.68-6.95Q611.68-5.55 611.11-4.2 610.53-2.85 609.41-1.8 608.28-0.75 606.66-0.13 605.03 0.5 602.98 0.5L602.98 0.5Q601.33 0.5 599.73 0.13 598.13-0.25 596.86-0.7 595.58-1.15 594.83-1.55L594.83-1.55 594.08-1.9 595.93-6.1 596.58-5.75Q597.23-5.35 598.23-4.9 599.23-4.45 600.38-4.08 601.53-3.7 602.48-3.7L602.48-3.7Q604.23-3.7 605.08-4.4 605.93-5.1 605.93-6.25L605.93-6.25Q605.93-7.55 605.01-8.63 604.08-9.7 602.23-10.4L602.23-10.4Q598.38-11.85 596.71-13.7 595.03-15.55 595.03-18.5L595.03-18.5Q595.03-19.9 595.68-21.18 596.33-22.45 597.46-23.43 598.58-24.4 600.13-24.95 601.68-25.5 603.48-25.5ZM626.73-20.85L626.73-24.9 631.23-24.9 632.23-30.75 636.93-31.8 636.93-24.9 643.08-24.9 642.38-20.85 636.93-20.85 636.93-6.05Q636.93-4.75 637.63-4.38 638.33-4 639.18-4L639.18-4Q639.88-4 640.58-4.1 641.28-4.2 641.83-4.35L641.83-4.35Q642.48-4.5 643.08-4.7L643.08-4.7 644.03-0.95 643.58-0.8Q643.13-0.6 642.25-0.38 641.38-0.15 640.2 0.03 639.03 0.2 637.63 0.2L637.63 0.2Q636.23 0.2 635.05-0.1 633.88-0.4 633.03-1.07 632.18-1.75 631.7-2.8 631.23-3.85 631.23-5.4L631.23-5.4 631.23-20.85 626.73-20.85ZM656.68-25.5Q662.43-25.5 665.03-22.1 667.63-18.7 667.63-12.75L667.63-12.75Q667.63-9.95 666.93-7.53 666.23-5.1 664.8-3.33 663.38-1.55 661.23-0.53 659.08 0.5 656.23 0.5L656.23 0.5Q653.38 0.5 651.3-0.38 649.23-1.25 647.88-2.9 646.53-4.55 645.9-6.9 645.28-9.25 645.28-12.2L645.28-12.2Q645.28-15.05 645.98-17.48 646.68-19.9 648.1-21.68 649.53-23.45 651.68-24.48 653.83-25.5 656.68-25.5L656.68-25.5ZM656.18-21.3Q654.73-21.3 653.8-20.65 652.88-20 652.35-18.82 651.83-17.65 651.63-16.07 651.43-14.5 651.43-12.7L651.43-12.7Q651.43-10.85 651.65-9.2 651.88-7.55 652.48-6.33 653.08-5.1 654.1-4.4 655.13-3.7 656.73-3.7L656.73-3.7Q658.18-3.7 659.1-4.35 660.03-5 660.55-6.18 661.08-7.35 661.28-8.9 661.48-10.45 661.48-12.25L661.48-12.25Q661.48-14.1 661.25-15.75 661.03-17.4 660.43-18.65 659.83-19.9 658.8-20.6 657.78-21.3 656.18-21.3L656.18-21.3ZM695.12-1.4L690.67 0.4Q690.57 0.35 690.22-0.08 689.87-0.5 689.45-1.25 689.02-2 688.62-3.13 688.22-4.25 688.12-5.75L688.12-5.75Q687.27-2.75 685.4-1.23 683.52 0.3 680.32 0.3L680.32 0.3Q677.97 0.3 676.25-0.58 674.52-1.45 673.37-3.08 672.22-4.7 671.67-7 671.12-9.3 671.12-12.1L671.12-12.1Q671.12-14.95 672-17.38 672.87-19.8 674.45-21.55 676.02-23.3 678.22-24.3 680.42-25.3 683.07-25.3L683.07-25.3Q683.97-25.3 685-25.2 686.02-25.1 687.02-24.95L687.02-24.95 687.02-36.25 692.72-35.25 692.72-12.05Q692.72-9.05 693.07-7.08 693.42-5.1 693.87-3.88 694.32-2.65 694.7-2.1 695.07-1.55 695.12-1.4L695.12-1.4ZM681.27-3.75Q682.52-3.75 683.57-4.6 684.62-5.45 685.4-6.83 686.17-8.2 686.6-9.95 687.02-11.7 687.02-13.55L687.02-13.55 687.02-20.75Q686.52-20.9 685.52-21.1 684.52-21.3 683.72-21.3L683.72-21.3Q681.82-21.3 680.6-20.65 679.37-20 678.62-18.85 677.87-17.7 677.57-16.1 677.27-14.5 677.27-12.6L677.27-12.6Q677.27-10.85 677.37-9.25 677.47-7.65 677.9-6.43 678.32-5.2 679.12-4.48 679.92-3.75 681.27-3.75L681.27-3.75ZM719.52-23.85L719.52-12.05Q719.52-9.05 719.9-7.03 720.27-5 720.72-3.75L720.72-3.75Q721.27-2.25 721.92-1.4L721.92-1.4 717.47 0.4Q716.82-0.25 716.27-1.15L716.27-1.15Q715.82-1.95 715.42-3.08 715.02-4.2 714.92-5.75L714.92-5.75Q714.07-2.75 712.2-1.23 710.32 0.3 707.12 0.3L707.12 0.3Q704.77 0.3 703.05-0.58 701.32-1.45 700.17-3.08 699.02-4.7 698.47-7 697.92-9.3 697.92-12.1L697.92-12.1Q697.92-14.95 698.8-17.38 699.67-19.8 701.25-21.55 702.82-23.3 705.02-24.3 707.22-25.3 709.87-25.3L709.87-25.3Q711.37-25.3 713-25.08 714.62-24.85 716.02-24.6 717.42-24.35 718.4-24.13 719.37-23.9 719.52-23.85L719.52-23.85ZM708.07-3.7Q709.32-3.7 710.37-4.55 711.42-5.4 712.2-6.78 712.97-8.15 713.4-9.93 713.82-11.7 713.82-13.55L713.82-13.55 713.82-20.75Q713.32-20.9 712.32-21.1 711.32-21.3 710.52-21.3L710.52-21.3Q708.62-21.3 707.4-20.65 706.17-20 705.42-18.85 704.67-17.7 704.37-16.1 704.07-14.5 704.07-12.6L704.07-12.6Q704.07-10.85 704.17-9.25 704.27-7.65 704.7-6.4 705.12-5.15 705.92-4.42 706.72-3.7 708.07-3.7L708.07-3.7ZM746.82-24.9L746.57-10.1Q746.57-8.6 746.79-7.35 747.02-6.1 747.29-4.88 747.57-3.65 747.82-2.4 748.07-1.15 748.07 0.35L748.07 0.35Q748.07 5.65 745.37 8.25 742.67 10.85 738.07 10.85L738.07 10.85Q736.57 10.85 735.07 10.58 733.57 10.3 732.29 9.95 731.02 9.6 730.12 9.25 729.22 8.9 728.92 8.75L728.92 8.75 730.32 4.4Q731.02 4.7 731.89 5.03 732.77 5.35 733.69 5.65 734.62 5.95 735.62 6.15 736.62 6.35 737.57 6.35L737.57 6.35Q740.37 6.35 741.62 4.67 742.87 3 742.87 0.35L742.87 0.35Q742.87-2.05 741.87-4.6L741.87-4.6Q740.47-1.95 738.14-0.83 735.82 0.3 733.27 0.3L733.27 0.3Q729.32 0.3 727.64-2 725.97-4.3 725.97-8.3L725.97-8.3 725.97-24.9 731.67-24.9 731.67-8.45Q731.67-6.35 732.42-5.15 733.17-3.95 734.97-3.95L734.97-3.95Q735.92-3.95 736.99-4.5 738.07-5.05 738.94-6.03 739.82-7 740.39-8.38 740.97-9.75 740.97-11.35L740.97-11.35 740.97-24.9 746.82-24.9Z" opacity="1" transform="matrix(1,0,0,1,0,0)" fill="#ffffff" class="undefined-text-1" data-fill-palette-color="secondary" id="text-1"></path></svg></g></svg></g></svg></g></svg></g><g></g></svg></g></svg></g></svg></g><g><path d="M96.964 54.485A122.216 122.216 0 0 1 298.556 54.485L292.076 54.485A115.736 115.736 0 0 0 103.444 54.485L96.964 54.485M96.964 192.715A122.216 122.216 0 0 0 298.556 192.715L292.076 192.715A115.736 115.736 0 0 1 103.444 192.715L96.964 192.715" fill="#ffffff" stroke="transparent" data-fill-palette-color="tertiary"></path></g></svg></g><defs></defs></svg><rect width="395.52" height="247.2" fill="none" stroke="none" visibility="hidden"></rect></g></svg></g></svg>